<svg width="514" height="60" viewBox="0 0 514 60" fill="none" xmlns="http://www.w3.org/2000/svg">
<path d="M63.6293 13.2468C68.097 13.2468 71.7967 15.2014 73.3325 16.6673L70.7496 19.8087C69.4931 18.6918 66.7008 17.156 63.6293 17.156C57.9749 17.156 54.4846 21.0652 54.4846 26.3705C54.4846 31.6759 57.8353 35.5851 63.6991 35.5851C67.1197 35.5851 70.0516 33.7701 71.3779 32.5136L73.8211 35.7945C72.2854 37.4001 68.446 39.5641 63.6991 39.5641C55.3921 39.5641 50.2961 33.9795 50.2961 26.4403C50.2263 18.8314 55.4619 13.2468 63.6293 13.2468Z" fill="#1C1C1C"/>
<path d="M89.3183 13.2468C96.9971 13.2468 102.582 18.8314 102.582 26.3705C102.582 33.9795 96.9971 39.4943 89.3183 39.4943C81.6395 39.4943 76.055 33.9097 76.055 26.3705C75.9852 18.8314 81.5697 13.2468 89.3183 13.2468ZM89.3183 35.5851C94.5539 35.5851 98.3932 31.6759 98.3932 26.3705C98.3932 21.0652 94.5539 17.156 89.3183 17.156C84.0828 17.156 80.2434 21.0652 80.2434 26.3705C80.2434 31.6759 84.0828 35.5851 89.3183 35.5851Z" fill="#1C1C1C"/>
<path d="M128.969 31.6759C128.969 35.3757 126.595 38.9358 120.452 38.9358H107.049V13.8053H119.684C124.78 13.8053 127.712 16.9466 127.712 20.5067C127.712 22.5311 126.805 24.3461 124.571 25.8121C126.805 26.6498 128.969 28.2553 128.969 31.6759ZM111.168 17.7843V24.4857L119.126 24.4159C121.988 24.4159 123.454 22.8104 123.454 20.9954C123.454 19.2502 122.197 17.7843 119.684 17.7843H111.168ZM120.732 35.0266C123.663 35.0266 124.78 33.4211 124.78 31.6759C124.78 29.7911 123.454 28.2553 120.801 28.2553H111.238V35.0964L120.732 35.0266Z" fill="#1C1C1C"/>
<path d="M145.513 26.0215L156.682 39.0056H151.167L141.813 27.9761H137.066V38.9358H132.948V13.8053H137.066V24.2065H141.813L150.888 13.8053H156.403L145.513 26.0215Z" fill="#1C1C1C"/>
<path d="M169.387 13.2468C177.066 13.2468 182.65 18.8314 182.65 26.3705C182.65 33.9795 177.066 39.4943 169.387 39.4943C161.708 39.4943 156.124 33.9097 156.124 26.3705C156.124 18.8314 161.708 13.2468 169.387 13.2468ZM169.387 35.5851C174.623 35.5851 178.462 31.6759 178.462 26.3705C178.462 21.0652 174.623 17.156 169.387 17.156C164.152 17.156 160.312 21.0652 160.312 26.3705C160.382 31.6759 164.221 35.5851 169.387 35.5851Z" fill="#1C1C1C"/>
<path d="M210.503 13.8751H214.482V39.0056H210.364V20.2973L202.127 31.3268H199.614L191.376 20.2973V39.0056H187.188V13.8751H191.167L200.8 26.7894L210.503 13.8751Z" fill="#1C1C1C"/>
<path d="M233.4 24.1367C238.915 24.1367 241.917 27.3478 241.917 31.5363C241.917 35.7247 238.915 39.0056 233.679 39.0056H219.997V13.8751H239.543V17.8541H224.186V24.2065H233.4V24.1367ZM233.54 35.0266C236.402 35.0266 237.728 33.4211 237.728 31.5363C237.728 29.6515 236.402 28.0459 233.54 28.0459H224.186V35.0266H233.54Z" fill="#1C1C1C"/>
<path d="M264.953 39.0056L262.231 32.723H250.363L247.641 39.0056H243.034L253.923 13.8751H258.461L269.351 39.0056H264.953ZM251.899 28.9534H260.555L256.297 18.9012L251.899 28.9534Z" fill="#1C1C1C"/>
<path d="M291.2 13.8751H295.319V39.0056H291.2V28.1855H276.681V38.9358H272.562V13.8053H276.681V24.2065H291.2V13.8751Z" fill="#1C1C1C"/>
<path d="M313.469 26.0215L324.638 39.0056H319.123L309.839 28.0459H305.092V39.0056H300.973V13.8751H305.092V24.2763H309.839L318.914 13.8751H324.429L313.469 26.0215Z" fill="#1C1C1C"/>
<path d="M0.453857 26.4403C0.453857 37.9585 9.80801 47.3127 21.3262 47.3127C21.6054 47.3127 21.8846 47.3127 22.1639 47.3127V39.3547H21.3262C14.2059 39.3547 8.34206 33.5607 8.34206 26.3705C8.34206 19.2502 14.1361 13.3864 21.3262 13.3864H22.1639V5.56802C21.8846 5.56802 21.6054 5.56802 21.3262 5.56802C9.80801 5.49821 0.453857 14.8524 0.453857 26.4403Z" fill="#1C1C1C"/>
<path d="M25.5146 5.91705V16.807H21.3262C16.0208 16.807 11.6928 21.135 11.6928 26.4403C11.6928 31.7457 16.0208 36.0737 21.3262 36.0737H25.5146V46.9636C35.0782 44.9392 42.2683 36.4926 42.2683 26.4403C42.2683 16.3183 35.0782 7.87165 25.5146 5.91705Z" fill="#1C1C1C"/>
<mask id="path-2-outside-1_325_35468" maskUnits="userSpaceOnUse" x="331.18" y="-2.89138" width="182.919" height="64.2975" fill="black">
<rect fill="white" x="331.18" y="-2.89138" width="182.919" height="64.2975"/>
<path fill-rule="evenodd" clip-rule="evenodd" d="M368.182 4.4387L341.95 9.48557C351.791 17.1944 355.772 26.621 356.041 34.1412C356.186 38.1963 355.249 41.7985 353.436 44.2268C351.571 46.7242 348.742 47.9733 345.542 46.9733C339.647 45.1313 337.712 39.8537 338.425 35.1821C339.121 30.6172 342.454 26.0562 347.621 25.7368L349.042 25.6489L349.217 28.4907L347.796 28.5785C344.415 28.7876 341.81 31.8718 341.239 35.6116C340.685 39.2447 342.153 42.9313 346.391 44.2557C348.257 44.8389 349.892 44.2142 351.155 42.5233C352.469 40.7632 353.325 37.8626 353.196 34.2429C352.939 27.0631 348.796 17.4454 337.667 9.88345L334.831 7.95599L367.644 1.64284L368.182 4.4387ZM412.657 2.89195L411.679 30.8134L416.3 30.9752L416.201 33.8206L390.037 32.9046L390.136 30.0592L393.979 30.1938L412.657 2.89195ZM397.348 30.3117L408.834 30.7138L409.468 12.5955L397.348 30.3117ZM508.003 13.2594C509.673 14.6415 511.007 16.5483 511.559 18.6599L511.904 19.9805L495.681 24.9607C495.668 25.2488 495.658 25.5435 495.651 25.8447C495.7 28.8229 496.792 31.4548 498.756 32.6347C500.642 33.767 503.977 33.9271 509.408 30.4798L510.61 29.7169L512.136 32.1208L510.934 32.8836C505.137 36.5625 500.547 37.031 497.291 35.0755C494.119 33.1709 492.854 29.3304 492.804 25.8605L492.803 25.8441L488.867 27.0526L488.031 24.3308L492.985 22.81C493.392 18.8611 494.431 15.9678 495.943 14.0047C497.614 11.8343 499.805 10.8857 502.043 10.9112C504.224 10.936 506.335 11.8791 508.003 13.2594ZM495.968 21.8942C496.407 18.9474 497.242 16.9846 498.199 15.7419C499.329 14.2737 500.676 13.7429 502.011 13.7581C503.404 13.774 504.905 14.3917 506.188 15.453C507.087 16.1973 507.827 17.1175 508.319 18.1028L495.968 21.8942ZM485.863 14.4251C487.533 15.8073 488.867 17.7141 489.419 19.8256L489.765 21.1462L473.541 26.1265C473.528 26.4145 473.518 26.7092 473.511 27.0105C473.56 29.9887 474.652 32.6205 476.617 33.8004C478.502 34.9327 481.837 35.0928 487.268 31.6455L488.47 30.8827L489.996 33.2865L488.794 34.0493C482.997 37.7283 478.407 38.1967 475.151 36.2412C471.979 34.3367 470.714 30.4961 470.664 27.0262L470.663 27.0098L466.727 28.2183L465.891 25.4965L470.845 23.9758C471.252 20.0268 472.291 17.1336 473.803 15.1704C475.474 13 477.665 12.0514 479.904 12.0769C482.085 12.1017 484.195 13.0449 485.863 14.4251ZM473.829 23.0599L486.179 19.2685C485.687 18.2832 484.947 17.363 484.048 16.6187C482.765 15.5574 481.264 14.9397 479.871 14.9239C478.536 14.9087 477.189 15.4394 476.059 16.9076C475.102 18.1504 474.267 20.1131 473.829 23.0599ZM455.025 12.3602L452.372 34.424L458.233 33.4544L461.026 12.3665L463.849 12.7403L461.033 34.0025L461.96 32.6886L464.286 34.3298L457.992 43.2518L455.666 41.6106L459.536 36.1248L450.98 37.5401L439.398 39.7219L442.135 13.2096L444.967 13.502L442.622 36.2174L449.443 34.9323L452.198 12.0203L455.025 12.3602ZM377.433 11.591L380.266 11.3824C380.992 16.5809 381.869 23.9391 382.053 31.0806C383.138 30.7714 384.251 30.5391 385.383 30.3984L386.795 30.2228L387.147 33.0482L385.734 33.2238C384.499 33.3773 383.278 33.6585 382.087 34.0465C382.068 39.2758 381.601 44.3295 380.269 48.1308C379.557 50.1608 378.559 51.9499 377.142 53.1995C375.682 54.4866 373.859 55.1272 371.711 54.9573C368.494 54.7029 366.199 53.4288 365.229 51.1587C364.31 49.0058 364.807 46.4398 365.945 44.07C368.13 39.5175 373.149 34.6462 379.226 32.0791C379.164 28.3678 378.897 24.5536 378.55 20.9906C378.404 21.3685 378.247 21.7444 378.079 22.1165C376.38 25.8708 373.419 29.414 368.521 30.472C366.073 31.001 364.046 30.6305 362.56 29.354C361.135 28.1307 360.47 26.2938 360.191 24.4528C359.634 20.7735 360.486 16.1853 361.391 13.1327L361.795 11.7678L364.525 12.5768L364.121 13.9417C363.26 16.845 362.541 20.9583 363.006 24.0266C363.238 25.5593 363.732 26.6078 364.414 27.1939C365.035 27.7268 366.065 28.0899 367.92 27.6891C371.63 26.8876 374.007 24.2096 375.485 20.943C376.97 17.6609 377.452 13.9638 377.433 11.591ZM379.228 35.2035C374.251 37.6161 370.247 41.6874 368.512 45.302C367.524 47.3603 367.399 48.9894 367.847 50.0402C368.246 50.9736 369.312 51.9115 371.935 52.119C373.325 52.2289 374.386 51.8342 375.259 51.0641C376.175 50.2565 376.959 48.9665 377.582 47.1889C378.668 44.0919 379.146 39.8686 379.228 35.2035ZM420.61 16.2814L420.076 17.6009C419.178 19.8172 418.311 22.9694 418.44 25.3695C418.504 26.5682 418.805 27.3535 419.23 27.7973C419.6 28.1821 420.285 28.5378 421.722 28.3704C424.595 28.0355 426.613 26.1817 428.006 23.758C429.407 21.3198 430.064 18.4746 430.228 16.6277L433.068 16.6937C433.24 20.7751 433.367 26.5118 432.994 32.0781C433.772 31.9519 434.561 31.8745 435.357 31.8531L436.78 31.8147L436.856 34.6608L435.433 34.6992C434.534 34.7234 433.634 34.8339 432.746 35.0191C432.323 39.0902 431.565 43.006 430.221 45.9054C429.491 47.4818 428.537 48.8695 427.264 49.7896C425.946 50.7429 424.374 51.1272 422.61 50.8143C420.024 50.3552 418.184 49.1245 417.546 47.1118C416.947 45.2206 417.585 43.1367 418.685 41.3186C420.777 37.8623 425.1 34.3948 430.089 32.7833C430.281 30.3069 430.365 27.7651 430.384 25.3314C428.719 28.1587 426.058 30.7314 422.051 31.1984C420.012 31.4361 418.335 30.9768 417.176 29.7682C416.073 28.6184 415.678 27.0318 415.597 25.5218C415.435 22.5046 416.48 18.8927 417.437 16.532L417.971 15.2126L420.61 16.2814ZM429.778 35.9205C425.91 37.4655 422.675 40.2253 421.121 42.7928C420.2 44.3151 420.023 45.5027 420.26 46.2514C420.459 46.8785 421.108 47.656 423.108 48.0109C424.122 48.191 424.911 47.9776 425.596 47.4823C426.328 46.9538 427.02 46.0421 427.638 44.7083C428.669 42.4836 429.352 39.3969 429.778 35.9205Z"/>
</mask>
<path fill-rule="evenodd" clip-rule="evenodd" d="M368.182 4.4387L341.95 9.48557C351.791 17.1944 355.772 26.621 356.041 34.1412C356.186 38.1963 355.249 41.7985 353.436 44.2268C351.571 46.7242 348.742 47.9733 345.542 46.9733C339.647 45.1313 337.712 39.8537 338.425 35.1821C339.121 30.6172 342.454 26.0562 347.621 25.7368L349.042 25.6489L349.217 28.4907L347.796 28.5785C344.415 28.7876 341.81 31.8718 341.239 35.6116C340.685 39.2447 342.153 42.9313 346.391 44.2557C348.257 44.8389 349.892 44.2142 351.155 42.5233C352.469 40.7632 353.325 37.8626 353.196 34.2429C352.939 27.0631 348.796 17.4454 337.667 9.88345L334.831 7.95599L367.644 1.64284L368.182 4.4387ZM412.657 2.89195L411.679 30.8134L416.3 30.9752L416.201 33.8206L390.037 32.9046L390.136 30.0592L393.979 30.1938L412.657 2.89195ZM397.348 30.3117L408.834 30.7138L409.468 12.5955L397.348 30.3117ZM508.003 13.2594C509.673 14.6415 511.007 16.5483 511.559 18.6599L511.904 19.9805L495.681 24.9607C495.668 25.2488 495.658 25.5435 495.651 25.8447C495.7 28.8229 496.792 31.4548 498.756 32.6347C500.642 33.767 503.977 33.9271 509.408 30.4798L510.61 29.7169L512.136 32.1208L510.934 32.8836C505.137 36.5625 500.547 37.031 497.291 35.0755C494.119 33.1709 492.854 29.3304 492.804 25.8605L492.803 25.8441L488.867 27.0526L488.031 24.3308L492.985 22.81C493.392 18.8611 494.431 15.9678 495.943 14.0047C497.614 11.8343 499.805 10.8857 502.043 10.9112C504.224 10.936 506.335 11.8791 508.003 13.2594ZM495.968 21.8942C496.407 18.9474 497.242 16.9846 498.199 15.7419C499.329 14.2737 500.676 13.7429 502.011 13.7581C503.404 13.774 504.905 14.3917 506.188 15.453C507.087 16.1973 507.827 17.1175 508.319 18.1028L495.968 21.8942ZM485.863 14.4251C487.533 15.8073 488.867 17.7141 489.419 19.8256L489.765 21.1462L473.541 26.1265C473.528 26.4145 473.518 26.7092 473.511 27.0105C473.56 29.9887 474.652 32.6205 476.617 33.8004C478.502 34.9327 481.837 35.0928 487.268 31.6455L488.47 30.8827L489.996 33.2865L488.794 34.0493C482.997 37.7283 478.407 38.1967 475.151 36.2412C471.979 34.3367 470.714 30.4961 470.664 27.0262L470.663 27.0098L466.727 28.2183L465.891 25.4965L470.845 23.9758C471.252 20.0268 472.291 17.1336 473.803 15.1704C475.474 13 477.665 12.0514 479.904 12.0769C482.085 12.1017 484.195 13.0449 485.863 14.4251ZM473.829 23.0599L486.179 19.2685C485.687 18.2832 484.947 17.363 484.048 16.6187C482.765 15.5574 481.264 14.9397 479.871 14.9239C478.536 14.9087 477.189 15.4394 476.059 16.9076C475.102 18.1504 474.267 20.1131 473.829 23.0599ZM455.025 12.3602L452.372 34.424L458.233 33.4544L461.026 12.3665L463.849 12.7403L461.033 34.0025L461.96 32.6886L464.286 34.3298L457.992 43.2518L455.666 41.6106L459.536 36.1248L450.98 37.5401L439.398 39.7219L442.135 13.2096L444.967 13.502L442.622 36.2174L449.443 34.9323L452.198 12.0203L455.025 12.3602ZM377.433 11.591L380.266 11.3824C380.992 16.5809 381.869 23.9391 382.053 31.0806C383.138 30.7714 384.251 30.5391 385.383 30.3984L386.795 30.2228L387.147 33.0482L385.734 33.2238C384.499 33.3773 383.278 33.6585 382.087 34.0465C382.068 39.2758 381.601 44.3295 380.269 48.1308C379.557 50.1608 378.559 51.9499 377.142 53.1995C375.682 54.4866 373.859 55.1272 371.711 54.9573C368.494 54.7029 366.199 53.4288 365.229 51.1587C364.31 49.0058 364.807 46.4398 365.945 44.07C368.13 39.5175 373.149 34.6462 379.226 32.0791C379.164 28.3678 378.897 24.5536 378.55 20.9906C378.404 21.3685 378.247 21.7444 378.079 22.1165C376.38 25.8708 373.419 29.414 368.521 30.472C366.073 31.001 364.046 30.6305 362.56 29.354C361.135 28.1307 360.47 26.2938 360.191 24.4528C359.634 20.7735 360.486 16.1853 361.391 13.1327L361.795 11.7678L364.525 12.5768L364.121 13.9417C363.26 16.845 362.541 20.9583 363.006 24.0266C363.238 25.5593 363.732 26.6078 364.414 27.1939C365.035 27.7268 366.065 28.0899 367.92 27.6891C371.63 26.8876 374.007 24.2096 375.485 20.943C376.97 17.6609 377.452 13.9638 377.433 11.591ZM379.228 35.2035C374.251 37.6161 370.247 41.6874 368.512 45.302C367.524 47.3603 367.399 48.9894 367.847 50.0402C368.246 50.9736 369.312 51.9115 371.935 52.119C373.325 52.2289 374.386 51.8342 375.259 51.0641C376.175 50.2565 376.959 48.9665 377.582 47.1889C378.668 44.0919 379.146 39.8686 379.228 35.2035ZM420.61 16.2814L420.076 17.6009C419.178 19.8172 418.311 22.9694 418.44 25.3695C418.504 26.5682 418.805 27.3535 419.23 27.7973C419.6 28.1821 420.285 28.5378 421.722 28.3704C424.595 28.0355 426.613 26.1817 428.006 23.758C429.407 21.3198 430.064 18.4746 430.228 16.6277L433.068 16.6937C433.24 20.7751 433.367 26.5118 432.994 32.0781C433.772 31.9519 434.561 31.8745 435.357 31.8531L436.78 31.8147L436.856 34.6608L435.433 34.6992C434.534 34.7234 433.634 34.8339 432.746 35.0191C432.323 39.0902 431.565 43.006 430.221 45.9054C429.491 47.4818 428.537 48.8695 427.264 49.7896C425.946 50.7429 424.374 51.1272 422.61 50.8143C420.024 50.3552 418.184 49.1245 417.546 47.1118C416.947 45.2206 417.585 43.1367 418.685 41.3186C420.777 37.8623 425.1 34.3948 430.089 32.7833C430.281 30.3069 430.365 27.7651 430.384 25.3314C428.719 28.1587 426.058 30.7314 422.051 31.1984C420.012 31.4361 418.335 30.9768 417.176 29.7682C416.073 28.6184 415.678 27.0318 415.597 25.5218C415.435 22.5046 416.48 18.8927 417.437 16.532L417.971 15.2126L420.61 16.2814ZM429.778 35.9205C425.91 37.4655 422.675 40.2253 421.121 42.7928C420.2 44.3151 420.023 45.5027 420.26 46.2514C420.459 46.8785 421.108 47.656 423.108 48.0109C424.122 48.191 424.911 47.9776 425.596 47.4823C426.328 46.9538 427.02 46.0421 427.638 44.7083C428.669 42.4836 429.352 39.3969 429.778 35.9205Z" fill="#0F8EFF"/>
<path fill-rule="evenodd" clip-rule="evenodd" d="M368.182 4.4387L341.95 9.48557C351.791 17.1944 355.772 26.621 356.041 34.1412C356.186 38.1963 355.249 41.7985 353.436 44.2268C351.571 46.7242 348.742 47.9733 345.542 46.9733C339.647 45.1313 337.712 39.8537 338.425 35.1821C339.121 30.6172 342.454 26.0562 347.621 25.7368L349.042 25.6489L349.217 28.4907L347.796 28.5785C344.415 28.7876 341.81 31.8718 341.239 35.6116C340.685 39.2447 342.153 42.9313 346.391 44.2557C348.257 44.8389 349.892 44.2142 351.155 42.5233C352.469 40.7632 353.325 37.8626 353.196 34.2429C352.939 27.0631 348.796 17.4454 337.667 9.88345L334.831 7.95599L367.644 1.64284L368.182 4.4387ZM412.657 2.89195L411.679 30.8134L416.3 30.9752L416.201 33.8206L390.037 32.9046L390.136 30.0592L393.979 30.1938L412.657 2.89195ZM397.348 30.3117L408.834 30.7138L409.468 12.5955L397.348 30.3117ZM508.003 13.2594C509.673 14.6415 511.007 16.5483 511.559 18.6599L511.904 19.9805L495.681 24.9607C495.668 25.2488 495.658 25.5435 495.651 25.8447C495.7 28.8229 496.792 31.4548 498.756 32.6347C500.642 33.767 503.977 33.9271 509.408 30.4798L510.61 29.7169L512.136 32.1208L510.934 32.8836C505.137 36.5625 500.547 37.031 497.291 35.0755C494.119 33.1709 492.854 29.3304 492.804 25.8605L492.803 25.8441L488.867 27.0526L488.031 24.3308L492.985 22.81C493.392 18.8611 494.431 15.9678 495.943 14.0047C497.614 11.8343 499.805 10.8857 502.043 10.9112C504.224 10.936 506.335 11.8791 508.003 13.2594ZM495.968 21.8942C496.407 18.9474 497.242 16.9846 498.199 15.7419C499.329 14.2737 500.676 13.7429 502.011 13.7581C503.404 13.774 504.905 14.3917 506.188 15.453C507.087 16.1973 507.827 17.1175 508.319 18.1028L495.968 21.8942ZM485.863 14.4251C487.533 15.8073 488.867 17.7141 489.419 19.8256L489.765 21.1462L473.541 26.1265C473.528 26.4145 473.518 26.7092 473.511 27.0105C473.56 29.9887 474.652 32.6205 476.617 33.8004C478.502 34.9327 481.837 35.0928 487.268 31.6455L488.47 30.8827L489.996 33.2865L488.794 34.0493C482.997 37.7283 478.407 38.1967 475.151 36.2412C471.979 34.3367 470.714 30.4961 470.664 27.0262L470.663 27.0098L466.727 28.2183L465.891 25.4965L470.845 23.9758C471.252 20.0268 472.291 17.1336 473.803 15.1704C475.474 13 477.665 12.0514 479.904 12.0769C482.085 12.1017 484.195 13.0449 485.863 14.4251ZM473.829 23.0599L486.179 19.2685C485.687 18.2832 484.947 17.363 484.048 16.6187C482.765 15.5574 481.264 14.9397 479.871 14.9239C478.536 14.9087 477.189 15.4394 476.059 16.9076C475.102 18.1504 474.267 20.1131 473.829 23.0599ZM455.025 12.3602L452.372 34.424L458.233 33.4544L461.026 12.3665L463.849 12.7403L461.033 34.0025L461.96 32.6886L464.286 34.3298L457.992 43.2518L455.666 41.6106L459.536 36.1248L450.98 37.5401L439.398 39.7219L442.135 13.2096L444.967 13.502L442.622 36.2174L449.443 34.9323L452.198 12.0203L455.025 12.3602ZM377.433 11.591L380.266 11.3824C380.992 16.5809 381.869 23.9391 382.053 31.0806C383.138 30.7714 384.251 30.5391 385.383 30.3984L386.795 30.2228L387.147 33.0482L385.734 33.2238C384.499 33.3773 383.278 33.6585 382.087 34.0465C382.068 39.2758 381.601 44.3295 380.269 48.1308C379.557 50.1608 378.559 51.9499 377.142 53.1995C375.682 54.4866 373.859 55.1272 371.711 54.9573C368.494 54.7029 366.199 53.4288 365.229 51.1587C364.31 49.0058 364.807 46.4398 365.945 44.07C368.13 39.5175 373.149 34.6462 379.226 32.0791C379.164 28.3678 378.897 24.5536 378.55 20.9906C378.404 21.3685 378.247 21.7444 378.079 22.1165C376.38 25.8708 373.419 29.414 368.521 30.472C366.073 31.001 364.046 30.6305 362.56 29.354C361.135 28.1307 360.47 26.2938 360.191 24.4528C359.634 20.7735 360.486 16.1853 361.391 13.1327L361.795 11.7678L364.525 12.5768L364.121 13.9417C363.26 16.845 362.541 20.9583 363.006 24.0266C363.238 25.5593 363.732 26.6078 364.414 27.1939C365.035 27.7268 366.065 28.0899 367.92 27.6891C371.63 26.8876 374.007 24.2096 375.485 20.943C376.97 17.6609 377.452 13.9638 377.433 11.591ZM379.228 35.2035C374.251 37.6161 370.247 41.6874 368.512 45.302C367.524 47.3603 367.399 48.9894 367.847 50.0402C368.246 50.9736 369.312 51.9115 371.935 52.119C373.325 52.2289 374.386 51.8342 375.259 51.0641C376.175 50.2565 376.959 48.9665 377.582 47.1889C378.668 44.0919 379.146 39.8686 379.228 35.2035ZM420.61 16.2814L420.076 17.6009C419.178 19.8172 418.311 22.9694 418.44 25.3695C418.504 26.5682 418.805 27.3535 419.23 27.7973C419.6 28.1821 420.285 28.5378 421.722 28.3704C424.595 28.0355 426.613 26.1817 428.006 23.758C429.407 21.3198 430.064 18.4746 430.228 16.6277L433.068 16.6937C433.24 20.7751 433.367 26.5118 432.994 32.0781C433.772 31.9519 434.561 31.8745 435.357 31.8531L436.78 31.8147L436.856 34.6608L435.433 34.6992C434.534 34.7234 433.634 34.8339 432.746 35.0191C432.323 39.0902 431.565 43.006 430.221 45.9054C429.491 47.4818 428.537 48.8695 427.264 49.7896C425.946 50.7429 424.374 51.1272 422.61 50.8143C420.024 50.3552 418.184 49.1245 417.546 47.1118C416.947 45.2206 417.585 43.1367 418.685 41.3186C420.777 37.8623 425.1 34.3948 430.089 32.7833C430.281 30.3069 430.365 27.7651 430.384 25.3314C428.719 28.1587 426.058 30.7314 422.051 31.1984C420.012 31.4361 418.335 30.9768 417.176 29.7682C416.073 28.6184 415.678 27.0318 415.597 25.5218C415.435 22.5046 416.48 18.8927 417.437 16.532L417.971 15.2126L420.61 16.2814ZM429.778 35.9205C425.91 37.4655 422.675 40.2253 421.121 42.7928C420.2 44.3151 420.023 45.5027 420.26 46.2514C420.459 46.8785 421.108 47.656 423.108 48.0109C424.122 48.191 424.911 47.9776 425.596 47.4823C426.328 46.9538 427.02 46.0421 427.638 44.7083C428.669 42.4836 429.352 39.3969 429.778 35.9205Z" stroke="#0F8EFF" stroke-width="1.27228" stroke-linecap="square" mask="url(#path-2-outside-1_325_35468)"/>
</svg>
